<svg width="215" height="68" viewBox="0 0 215 68" fill="none" xmlns="http://www.w3.org/2000/svg">
<path fill-rule="evenodd" clip-rule="evenodd" d="M45.7445 36.7222C45.2233 37.0139 44.598 37.1111 44.1811 36.8194C43.5557 36.5278 43.243 35.75 43.243 34.7778V31.6667C43.243 30.2083 42.6176 29.1389 41.5753 28.8472C39.8035 28.3611 38.4485 30.4028 37.9273 31.1806L34.8005 35.9444V30.1111C34.8005 28.75 34.2793 27.9722 33.4455 27.7778C32.8201 27.5833 31.9863 27.6806 31.1525 28.8472L24.1691 39.3472C23.2311 37.6944 22.7099 35.8472 22.7099 33.9028C22.7099 27.5833 28.1298 22.4306 34.8005 22.4306C41.4711 22.4306 46.891 27.6806 46.891 34C46.9952 35.2639 46.5783 36.2361 45.7445 36.7222ZM49.601 34C49.601 26.2222 42.9303 20 34.8005 20C26.6706 20 20 26.3194 20 34C20 41.6806 26.6706 48 34.8005 48C38.5527 48 42.0965 46.6389 44.9107 44.2083C45.4318 43.7222 45.536 42.9444 45.0149 42.3611C44.4937 41.875 43.6599 41.7778 43.1388 42.2639C40.95 44.2083 37.9273 45.375 34.9047 45.375C31.3609 45.375 28.1298 43.9167 25.8368 41.5833L32.1948 32.0556V36.4306C32.1948 38.5694 33.0286 39.25 33.7582 39.4444C34.4878 39.6389 35.6343 39.5417 36.7808 37.6944L40.2204 32.4444C40.3246 32.25 40.4288 32.1528 40.5331 31.9583V34.5833C40.5331 36.5278 41.3669 38.0833 42.8261 38.8611C44.1811 39.5417 45.8487 39.5417 47.2037 38.6667C48.8714 37.9861 49.7052 36.1389 49.601 34ZM70.2382 29.2361C70.5509 29.4306 70.8636 29.9167 70.8636 30.3056C70.8636 30.9861 70.2382 31.4722 69.6129 31.4722C69.4044 31.4722 69.3002 31.4722 69.0917 31.375C68.2579 30.7917 67.3198 30.5 66.2775 30.5C63.7761 30.5 62.1084 32.3472 62.1084 34.6806C62.1084 37.0139 63.7761 38.8611 66.2775 38.8611C67.5283 38.8611 68.5706 38.375 69.4044 37.6944C69.6129 37.5972 69.9256 37.5 70.134 37.5C70.7594 37.5 71.2805 37.9861 71.2805 38.6667C71.2805 39.0556 70.9678 39.4444 70.6552 39.6389C69.5086 40.6111 67.841 41.1944 66.1733 41.1944C62.4211 41.1944 59.2942 38.2778 59.2942 34.6806C59.2942 31.0833 62.4211 28.1667 66.1733 28.1667C67.841 28.0694 69.196 28.4583 70.2382 29.2361ZM77.2216 31.9583C79.8273 31.9583 82.0161 34 82.0161 36.5278C82.0161 39.0556 79.8273 41.1944 77.2216 41.1944C74.5116 41.1944 72.2186 39.0556 72.2186 36.5278C72.2186 34 74.5116 31.9583 77.2216 31.9583ZM77.2216 38.8611C78.3681 38.8611 79.3061 37.8889 79.3061 36.5278C79.3061 35.1667 78.3681 34.2917 77.2216 34.2917C75.9708 34.2917 74.9285 35.1667 74.9285 36.5278C74.9285 37.8889 75.9708 38.8611 77.2216 38.8611ZM83.5795 39.7361V33.3194C83.5795 32.6389 84.2049 32.0556 84.9345 32.0556C85.6641 32.0556 86.2895 32.6389 86.2895 33.3194V39.7361C86.2895 40.4167 85.6641 41 84.9345 41C84.2049 41 83.5795 40.4167 83.5795 39.7361ZM83.3711 29.625C83.3711 28.75 84.1007 28.1667 84.9345 28.1667C85.7683 28.1667 86.4979 28.8472 86.4979 29.625C86.4979 30.4028 85.7683 31.0833 84.9345 31.0833C84.1007 31.0833 83.3711 30.4028 83.3711 29.625ZM91.3967 36.2361V39.7361C91.3967 40.4167 90.7713 41 90.0417 41C89.3121 41 88.6867 40.4167 88.6867 39.7361V33.0278C88.6867 32.4444 89.2079 32.0556 89.729 32.0556C90.2501 32.0556 90.7713 32.5417 90.7713 33.0278C91.8136 32.0556 92.8559 31.9583 93.6897 31.9583C96.3996 31.9583 97.5462 33.8056 97.5462 35.9444V39.7361C97.5462 40.4167 96.9208 41 96.1912 41C95.4616 41 94.8362 40.4167 94.8362 39.7361V36.2361C94.8362 35.1667 94.732 34.1944 92.9601 34.1944C91.9178 34.1944 91.3967 35.1667 91.3967 36.2361ZM106.406 37.5972C106.093 37.5972 105.884 37.5 105.676 37.3056L102.549 34.0972V39.7361C102.549 40.4167 101.924 41 101.194 41C100.465 41 99.8392 40.4167 99.8392 39.7361V28.5556C99.9434 28.3611 100.152 28.2639 100.36 28.2639C100.569 28.2639 100.777 28.4583 100.881 28.5556L105.884 33.8056C105.989 34 106.197 34.0972 106.301 34.0972C106.406 34.0972 106.614 34 106.718 33.8056L111.721 28.5556C111.825 28.4583 112.034 28.2639 112.242 28.2639C112.451 28.2639 112.659 28.3611 112.764 28.5556V39.7361C112.764 40.4167 112.138 41 111.409 41C110.679 41 110.054 40.4167 110.054 39.7361V34.0972L106.927 37.3056C106.823 37.4028 106.614 37.5972 106.406 37.5972ZM119.226 38.8611C120.476 38.8611 121.415 37.8889 121.415 36.5278C121.415 35.1667 120.372 34.2917 119.226 34.2917C118.079 34.2917 117.141 35.1667 117.141 36.5278C117.141 37.7917 118.079 38.8611 119.226 38.8611ZM122.144 40.0278V39.7361C121.623 40.7083 119.955 41.0972 118.913 41.0972C116.412 41.0972 114.535 38.9583 114.535 36.4306C114.535 33.9028 116.412 31.8611 119.017 31.8611C119.434 31.8611 120.998 31.9583 122.144 33.2222V32.9306C122.144 32.3472 122.561 31.9583 123.186 31.9583C123.708 31.9583 124.229 32.4444 124.229 32.9306V39.9306C124.229 40.5139 123.708 40.9028 123.186 40.9028C122.561 41 122.144 40.6111 122.144 40.0278ZM131.629 34.1944H131.316C129.649 34.2917 129.336 35.1667 129.336 36.2361V39.7361C129.336 40.4167 128.711 41 127.981 41C127.251 41 126.626 40.4167 126.626 39.7361V33.0278C126.626 32.4444 127.147 32.0556 127.668 32.0556C128.189 32.0556 128.711 32.5417 128.711 33.0278C129.753 32.1528 130.482 31.9583 131.316 31.9583H131.629C132.254 31.9583 132.88 32.4444 132.88 33.125C132.775 33.7083 132.254 34.1944 131.629 34.1944ZM141.948 39.1528C142.052 39.3472 142.156 39.5417 142.156 39.7361C142.156 40.4167 141.531 41 140.801 41C140.28 41 139.967 40.7083 139.655 40.3194L136.528 37.0139V39.7361C136.528 40.4167 135.902 41 135.173 41C134.443 41 133.818 40.4167 133.818 39.7361V29.5278C133.818 28.8472 134.443 28.2639 135.173 28.2639C135.902 28.2639 136.528 28.8472 136.528 29.5278V35.9444L139.655 32.7361C139.967 32.4444 140.384 32.0556 140.801 32.0556C141.426 32.0556 142.052 32.6389 142.052 33.3194C142.052 33.5139 142.052 33.7083 141.843 33.9028L139.446 36.4306L141.948 39.1528ZM147.159 34.2917C146.429 34.2917 145.283 34.6806 145.283 35.75H149.139C149.139 34.5833 147.889 34.2917 147.159 34.2917ZM150.703 37.3056H145.283C145.283 38.7639 146.846 39.0556 147.472 39.0556C147.993 39.0556 148.722 38.9583 149.244 38.7639C149.452 38.6667 149.661 38.5694 149.973 38.5694C150.599 38.5694 151.015 39.0556 151.015 39.6389C151.015 40.0278 150.703 40.3194 150.39 40.5139C149.556 41.0972 148.514 41.1944 147.472 41.1944C144.762 41.1944 142.469 39.8333 142.469 36.625C142.469 34.0972 143.824 31.9583 147.055 31.9583C149.661 31.9583 151.641 33.5139 151.641 36.3333C151.745 36.8194 151.328 37.3056 150.703 37.3056ZM158.207 41.0972H157.478C155.393 41.0972 154.247 40.2222 154.247 37.3056V34.1944H153.517C152.892 34.1944 152.266 33.6111 152.266 33.0278C152.266 32.3472 152.787 31.8611 153.517 31.8611H154.247V29.5278C154.247 28.8472 154.872 28.2639 155.602 28.2639C156.331 28.2639 156.957 28.8472 156.957 29.5278V31.8611H158.103C158.728 31.8611 159.354 32.3472 159.354 33.0278C159.354 33.6111 158.833 34.1944 158.103 34.1944H156.957V36.8194C156.957 38.5694 157.061 38.8611 157.895 38.8611H158.311C158.937 38.8611 159.458 39.3472 159.458 40.0278C159.354 40.6111 158.833 41.0972 158.207 41.0972ZM171.132 29.2361C171.444 29.4306 171.757 29.9167 171.757 30.3056C171.757 30.9861 171.132 31.4722 170.506 31.4722C170.298 31.4722 170.194 31.4722 169.985 31.375C169.151 30.7917 168.213 30.5 167.171 30.5C164.669 30.5 163.002 32.3472 163.002 34.6806C163.002 37.0139 164.669 38.8611 167.171 38.8611C168.422 38.8611 169.464 38.375 170.298 37.6944C170.506 37.5972 170.819 37.5 171.027 37.5C171.653 37.5 172.174 37.9861 172.174 38.6667C172.174 39.0556 171.861 39.4444 171.549 39.6389C170.402 40.6111 168.734 41.1944 167.067 41.1944C163.314 41.1944 160.188 38.2778 160.188 34.6806C160.188 31.0833 163.314 28.1667 167.067 28.1667C168.734 28.0694 170.089 28.4583 171.132 29.2361ZM178.011 38.8611C179.261 38.8611 180.2 37.8889 180.2 36.5278C180.2 35.1667 179.157 34.2917 178.011 34.2917C176.864 34.2917 175.926 35.1667 175.926 36.5278C175.822 37.7917 176.76 38.8611 178.011 38.8611ZM180.825 40.0278V39.7361C180.304 40.7083 178.636 41.0972 177.594 41.0972C175.092 41.0972 173.216 38.9583 173.216 36.4306C173.216 33.9028 175.092 31.8611 177.698 31.8611C178.115 31.8611 179.678 31.9583 180.825 33.2222V32.9306C180.825 32.3472 181.242 31.9583 181.867 31.9583C182.388 31.9583 182.909 32.4444 182.909 32.9306V39.9306C182.909 40.5139 182.388 40.9028 181.867 40.9028C181.242 41 180.825 40.6111 180.825 40.0278ZM190.31 38.8611C191.456 38.8611 192.394 37.7917 192.394 36.5278C192.394 35.1667 191.456 34.2917 190.31 34.2917C189.163 34.2917 188.121 35.1667 188.121 36.5278C188.017 37.8889 189.059 38.8611 190.31 38.8611ZM188.017 40.4167V43.625C188.017 44.3056 187.391 44.8889 186.662 44.8889C185.932 44.8889 185.307 44.3056 185.307 43.625V33.0278C185.307 32.4444 185.828 32.0556 186.349 32.0556C186.87 32.0556 187.391 32.5417 187.391 33.125C188.434 32.1528 189.58 31.9583 190.518 31.9583C193.124 31.9583 195 34 195 36.5278C195 39.0556 193.124 41.1944 190.622 41.1944C189.893 41.0972 188.746 40.9028 188.017 40.4167Z" fill="#9B9A9C"/>
</svg>
