<svg width="135" height="28" viewBox="0 0 135 28" fill="none" xmlns="http://www.w3.org/2000/svg">
<path d="M8.8595 11.7652L14.2976 6.32935L19.7379 11.7697L22.9004 8.60499L14.2976 0L5.69482 8.60278L8.8595 11.7652Z" fill="#9B9A9C"/>
<path d="M0.29541 14.0005L3.45893 10.837L6.62245 14.0005L3.45893 17.164L0.29541 14.0005Z" fill="#9B9A9C"/>
<path d="M8.85953 16.2346L14.2976 21.6727L19.738 16.2324L22.9026 19.3927L22.9004 19.3949L14.2976 27.9999L5.69485 19.3993L5.69043 19.3949L8.85953 16.2346Z" fill="#9B9A9C"/>
<path d="M21.9673 14.0012L25.1308 10.8377L28.2943 14.0012L25.1308 17.1647L21.9673 14.0012Z" fill="#9B9A9C"/>
<path d="M17.5067 13.999L14.2978 10.7878L11.9248 13.1608L11.6506 13.4328L11.0889 13.9945L11.0845 13.999L11.0889 14.0056L14.2978 17.2123L17.5067 14.0012L17.5089 13.999H17.5067Z" fill="#9B9A9C"/>
<path d="M38.2944 7.30908H44.4917C46.029 7.30908 47.192 7.70736 47.9806 8.50392C48.2777 8.79817 48.5119 9.14971 48.6691 9.53722C48.8262 9.92472 48.9029 10.3401 48.8947 10.7582V10.796C48.9 11.1385 48.8523 11.4798 48.7533 11.8077C48.665 12.0899 48.537 12.3582 48.3729 12.6042C48.22 12.8362 48.0349 13.0454 47.8233 13.2255C47.6165 13.4035 47.39 13.5572 47.1482 13.6836C47.8455 13.9264 48.4725 14.3367 48.9743 14.8784C49.4177 15.3829 49.6394 16.0799 49.6394 16.9694V17.0072C49.652 17.5627 49.5312 18.1131 49.287 18.6123C49.0503 19.0721 48.7035 19.4662 48.2773 19.7593C47.7956 20.0823 47.2591 20.3151 46.6942 20.4463C46.0229 20.6055 45.3348 20.6824 44.645 20.6754H38.2944V7.30908ZM43.8704 12.7137C44.4065 12.7397 44.9401 12.6243 45.4177 12.3792C45.6039 12.2704 45.756 12.1116 45.8566 11.9209C45.9573 11.7301 46.0025 11.515 45.9872 11.2998V11.262C45.9971 11.0638 45.9568 10.8663 45.8701 10.6877C45.7835 10.5091 45.6532 10.3553 45.4914 10.2404C45.1608 10.0054 44.6835 9.88795 44.0595 9.88795H41.1601V12.7137H43.8704ZM44.653 18.1005C45.1872 18.1304 45.7189 18.0082 46.1864 17.748C46.3685 17.631 46.5159 17.4673 46.6133 17.274C46.7106 17.0806 46.7544 16.8647 46.74 16.6487V16.6109C46.7471 16.4056 46.7039 16.2017 46.614 16.017C46.524 15.8323 46.3902 15.6725 46.2242 15.5515C45.8817 15.286 45.3281 15.1532 44.5634 15.1532H41.1601V18.1005H44.653Z" fill="#9B9A9C"/>
<path d="M53.3315 7.30908H56.2728V20.6793H53.3315V7.30908Z" fill="#9B9A9C"/>
<path d="M60.7236 7.30908H63.4359L69.7048 15.5375V7.30908H72.6083V20.6793H70.1051L63.6311 12.18V20.6793H60.7236V7.30908Z" fill="#9B9A9C"/>
<path d="M81.514 7.21338H84.2223L89.9515 20.6792H86.8808L85.6581 17.6802H80.0045L78.7818 20.6792H75.7827L81.514 7.21338ZM84.6086 15.0834L82.8283 10.7461L81.0559 15.0834H84.6086Z" fill="#9B9A9C"/>
<path d="M93.1318 7.30908H95.8441L102.109 15.5375V7.30908H105.013V20.6793H102.509L96.0353 12.18V20.6793H93.1318V7.30908Z" fill="#9B9A9C"/>
<path d="M115.598 20.9143C114.661 20.9223 113.732 20.7408 112.866 20.3806C112.051 20.0442 111.312 19.5481 110.692 18.9215C110.072 18.2949 109.584 17.5506 109.256 16.7324C108.91 15.8765 108.735 14.9612 108.74 14.038V14.0002C108.725 12.1805 109.425 10.4276 110.69 9.11923C111.312 8.48014 112.057 7.97347 112.88 7.62967C113.775 7.25879 114.737 7.07383 115.706 7.08601C116.279 7.08174 116.851 7.13309 117.415 7.23935C117.896 7.33049 118.368 7.4713 118.82 7.65954C119.231 7.83252 119.622 8.05023 119.985 8.30873C120.34 8.56086 120.673 8.84194 120.981 9.1491L119.111 11.3078C118.633 10.867 118.097 10.4937 117.518 10.1986C116.949 9.92648 116.325 9.79014 115.694 9.80029C115.169 9.79469 114.649 9.90082 114.168 10.1116C113.688 10.3224 113.257 10.6331 112.906 11.023C112.558 11.4119 112.285 11.8624 112.101 12.3513C111.91 12.868 111.813 13.4152 111.817 13.9663V14.0041C111.815 14.5545 111.911 15.1007 112.101 15.6172C112.282 16.1078 112.552 16.5609 112.898 16.9534C113.247 17.3481 113.676 17.6634 114.157 17.8778C114.638 18.0921 115.159 18.2007 115.686 18.196C116.357 18.2172 117.022 18.0729 117.624 17.7759C118.196 17.4637 118.726 17.0781 119.199 16.6288L121.071 18.5206C120.74 18.8794 120.383 19.2122 120.001 19.5163C119.627 19.8126 119.22 20.0657 118.789 20.2711C118.329 20.4874 117.845 20.6472 117.347 20.747C116.771 20.8624 116.185 20.9185 115.598 20.9143Z" fill="#9B9A9C"/>
<path d="M124.542 7.30908H134.605V9.92578H127.436V12.6381H133.748V15.2548H127.445V18.0626H134.704V20.6793H124.548L124.542 7.30908Z" fill="#9B9A9C"/>
</svg>
