<svg width="169" height="28" viewBox="0 0 169 28" fill="none" xmlns="http://www.w3.org/2000/svg">
<path d="M11.0043 19.6664H3.66865V15.7577H11.0043C12.8373 15.7577 13.7743 16.6356 13.7743 17.7726C13.7743 18.8686 12.8578 19.6664 11.0043 19.6664ZM10.7658 13.6644H3.66865V10.3728H10.7658C12.6976 10.3728 13.4557 11.0547 13.4557 11.9888C13.4557 12.8411 12.5784 13.6644 10.7658 13.6644ZM12.6397 14.6616C15.73 14.5611 16.8458 13.0252 16.8458 11.3513C16.8441 9.5154 15.3893 8 11.8407 8H0.5V22H12.1797C15.0894 22 17.2632 20.7846 17.2632 18.1714C17.2632 16.3168 16.0468 14.7418 12.638 14.6616H12.6397ZM21.006 8V22H24.1797V8H21.006ZM37.0196 10.6524H44.0043V8H26.8816V10.6524H33.8578V22H37.0264L37.0196 10.6524ZM46.7095 8V22H49.8782V16.5452H57.3126V14.2423H49.8782V10.4137H61.9583V8H46.7095ZM64.5256 8V22H67.6942V8H64.5256ZM75.1167 11.4092L85.6278 22H89.2155V8H86.086V18.0913L76.0009 8H71.9753V22H75.1167V11.4092ZM93.4983 8V22H109.001V19.6476H96.667V15.7986H104.06V13.6252H96.667V10.4137H109.004V8H93.4983ZM130.227 8H126.042L120.701 12.9263L115.398 8H111.152L118.607 14.9003L110.875 22H115.06L120.66 16.835L126.241 22H130.5L122.754 14.8815L130.227 8Z" fill="#9B9A9C"/>
<path d="M141.561 24.0343C142.851 25.4153 149.942 32.0321 161.072 24.3524C169.122 18.0237 168.92 4.30336 168.148 0.15763C167.878 0.761139 158.539 21.4327 141.561 24.0343ZM168.148 0.154912C168.048 0.114134 157.693 -1.31036 147.457 5.34726C141.101 9.4794 140.258 15.5308 140.549 19.5732C155.429 17.8823 167.808 0.630651 168.148 0.154912Z" fill="#9B9A9C"/>
</svg>
