<svg width="165" height="28" viewBox="0 0 165 28" fill="none" xmlns="http://www.w3.org/2000/svg">
<path d="M2.87335 10.2825L1.60938 11.5733C1.25954 11.9166 0.981202 12.3284 0.791069 12.7842C0.600937 13.24 0.50293 13.7304 0.50293 14.2258C0.50293 14.7213 0.600937 15.2116 0.791069 15.6674C0.981202 16.1232 1.25954 16.5351 1.60938 16.8783L11.7915 27.3809C12.0339 27.6332 12.3133 27.8419 12.6226 27.9998V15.2691L2.87335 10.2825Z" fill="#9B9A9C"/>
<path d="M25.8359 10.2825L27.0999 11.5733C27.4497 11.9166 27.728 12.3284 27.9182 12.7842C28.1083 13.24 28.2063 13.7304 28.2063 14.2258C28.2063 14.7213 28.1083 15.2116 27.9182 15.6674C27.728 16.1232 27.4497 16.5351 27.0999 16.8783L16.9166 27.3809C16.6741 27.6332 16.3948 27.8419 16.0854 27.9998V15.2691L25.8359 10.2825Z" fill="#9B9A9C"/>
<path d="M23.3898 7.64784L17.018 1.12274C16.6808 0.767527 16.2771 0.485108 15.831 0.292244C15.3849 0.0993802 14.9053 0 14.4209 0C13.9364 0 13.4569 0.0993802 13.0107 0.292244C12.5646 0.485108 12.1609 0.767527 11.8237 1.12274L5.43457 7.64784L14.3862 12.2101L23.3898 7.64784Z" fill="#9B9A9C"/>
<path fill-rule="evenodd" clip-rule="evenodd" d="M111.993 8.62037C111.976 8.33519 112.044 8.05157 112.187 7.8061C112.33 7.56063 112.542 7.36456 112.795 7.2432C112.985 7.15204 113.192 7.10557 113.402 7.10722C113.611 7.10888 113.818 7.15862 114.006 7.25277C114.194 7.34691 114.359 7.48306 114.489 7.65114C114.618 7.81922 114.71 8.01493 114.755 8.2238C114.801 8.43268 114.8 8.64936 114.753 8.85784C114.705 9.06632 114.613 9.26126 114.482 9.42824C114.35 9.59523 114.184 9.72998 113.995 9.82255C113.806 9.91511 113.6 9.96311 113.39 9.96301C113.122 9.97123 112.857 9.89809 112.63 9.75283C112.402 9.60758 112.222 9.39671 112.111 9.14685C112.038 8.981 111.998 8.80211 111.993 8.62037ZM112.096 11.1893H114.674V20.7041H112.096V11.1893ZM43.1753 8.01777H38.2065V20.7041H43.5272C46.3118 20.7041 47.8024 19.2134 47.8024 17.1942C47.839 16.4163 47.5718 15.6553 47.0594 15.0785C46.547 14.5016 45.8313 14.1561 45.0696 14.1178V13.9909C45.704 13.8912 46.2813 13.5597 46.6945 13.0581C47.1076 12.5564 47.3284 11.9187 47.3159 11.2634C47.3159 9.37098 45.9185 8.01777 43.1753 8.01777ZM44.6556 11.6968C44.6556 12.7011 43.8171 13.3037 42.7819 13.3037L40.7944 13.3354V10.1639H42.8233C43.9931 10.1639 44.6556 10.6925 44.6556 11.6968ZM45.0386 16.9088C45.0386 17.8602 44.4382 18.484 42.9683 18.484H40.7944V15.1221H42.9683C43.2218 15.0848 43.4801 15.1027 43.7263 15.1748C43.9725 15.2469 44.2009 15.3715 44.3966 15.5403C44.5922 15.7091 44.7505 15.9183 44.8612 16.1542C44.9719 16.3901 45.0323 16.6473 45.0386 16.9088ZM49.0757 20.7041H51.6946L51.6532 8.01777H49.0757V20.7041ZM53.0507 15.9784C53.0507 13.0289 54.8105 11.0625 57.6364 11.0625C60.4624 11.0625 62.2222 13.0289 62.2222 15.9784C62.2222 18.928 60.4624 20.8838 57.6364 20.8838C54.8105 20.8838 53.0507 18.9174 53.0507 15.9784ZM59.5929 15.9728C59.5915 14.3165 58.9187 13.0923 57.6468 13.0923C56.3735 13.0923 55.6696 14.3186 55.6696 15.9784C55.6696 17.6382 56.3425 18.854 57.6468 18.854C58.9497 18.854 59.5915 17.6305 59.5929 15.9728ZM67.7706 11.0625C64.9446 11.0625 63.1952 13.0606 63.1952 15.9784C63.1952 18.8751 64.9136 20.8838 67.7706 20.8838C70.2239 20.8838 71.787 19.4037 71.9113 17.2153H69.4683C69.4417 17.6509 69.2512 18.0591 68.9368 18.3547C68.6223 18.6502 68.2082 18.8102 67.781 18.8011C66.5698 18.8011 65.7935 17.7122 65.7935 15.9467C65.7935 14.1812 66.5802 13.124 67.781 13.124C68.2082 13.115 68.6223 13.2749 68.9368 13.5705C69.2512 13.866 69.4417 14.2742 69.4683 14.7098H71.9113C71.8284 12.5108 70.2032 11.0625 67.7706 11.0625ZM73.2673 8.01777H75.8552V14.7944H75.9898L78.9814 11.1893H81.9419L78.4845 15.3124L82.1179 20.7041H79.0952L76.5488 16.8665L75.8552 17.6805V20.7041H73.2673V8.01777ZM86.6829 11.0625C83.857 11.0625 82.1075 13.0606 82.1075 15.9784C82.1075 18.8751 83.8259 20.8838 86.7036 20.8838C89.1673 20.8838 90.7201 19.4037 90.8443 17.2153H88.4117C88.3826 17.6519 88.1901 18.0603 87.8739 18.3556C87.5578 18.6509 87.1423 18.8105 86.714 18.8011C85.5029 18.8011 84.7265 17.7122 84.7265 15.9467C84.7265 14.1812 85.5132 13.124 86.714 13.124C87.1422 13.1152 87.5573 13.2749 87.8734 13.5701C88.1894 13.8654 88.3822 14.2734 88.4117 14.7098H90.8236C90.7511 12.5108 89.1156 11.0625 86.6829 11.0625ZM94.7675 20.7041H92.19V8.01777H94.6951V12.8703H94.8089C95.0191 12.3019 95.4042 11.8185 95.9063 11.4925C96.4083 11.1666 97.0003 11.0157 97.5935 11.0625C99.5292 11.0625 100.813 12.4157 100.813 14.6464V20.7041H98.2249V15.1115C98.2589 14.8741 98.2407 14.632 98.1719 14.4026C98.103 14.1732 97.9851 13.9623 97.8268 13.7851C97.6683 13.6079 97.4732 13.4689 97.2556 13.3783C97.038 13.2877 96.8033 13.2478 96.5687 13.2614C96.1947 13.2464 95.826 13.3548 95.5171 13.5706C95.2082 13.7864 94.9756 14.0982 94.8538 14.4596C94.7729 14.6994 94.7435 14.9542 94.7675 15.2067V20.7041ZM105.575 15.1115C103.732 15.2913 102.076 15.9361 102.076 18.0505C102.076 19.9323 103.39 20.8838 105.171 20.8838C105.718 20.9269 106.265 20.8082 106.748 20.542C107.231 20.2758 107.628 19.8733 107.893 19.3826H107.966V20.7041H110.419V14.2764C110.419 12.0034 108.535 11.0519 106.465 11.0519C104.229 11.0519 102.769 12.1408 102.407 13.8746L104.798 14.0755C104.914 13.7323 105.142 13.44 105.443 13.2476C105.745 13.0552 106.102 12.9743 106.454 13.0183C107.334 13.0183 107.831 13.4729 107.831 14.2552C107.831 14.8789 107.2 14.953 105.575 15.1115ZM107.852 16.2427V17.2999C107.837 17.5431 107.776 17.7808 107.67 17.9993C107.564 18.2177 107.417 18.4124 107.237 18.5721C107.057 18.7318 106.847 18.8531 106.62 18.9287C106.393 19.0044 106.154 19.0329 105.916 19.0126C105.119 19.0126 104.55 18.6426 104.55 17.9025C104.55 17.1625 105.15 16.7925 106.061 16.6656C106.675 16.6142 107.278 16.4718 107.852 16.2427ZM116.361 20.7041H118.99L118.949 15.2067C118.92 14.9568 118.945 14.7034 119.021 14.4641C119.097 14.2248 119.223 14.0052 119.39 13.8204C119.557 13.6355 119.762 13.4899 119.989 13.3934C120.217 13.2969 120.462 13.2519 120.709 13.2614C120.943 13.2498 121.176 13.2911 121.393 13.3823C121.61 13.4735 121.804 13.6124 121.962 13.789C122.12 13.9657 122.239 14.1758 122.308 14.4044C122.378 14.633 122.397 14.8744 122.365 15.1115V20.7041H124.953V14.6464C124.953 12.4263 123.679 11.0625 121.733 11.0625C121.139 11.0252 120.549 11.1798 120.045 11.5042C119.542 11.8286 119.151 12.3065 118.928 12.8703H118.825V11.1893H116.361V20.7041Z" fill="#9B9A9C"/>
<path opacity="0.6" fill-rule="evenodd" clip-rule="evenodd" d="M153.42 11.1893H150.956L150.946 20.704H153.533V14.9952C153.502 14.6665 153.57 14.3358 153.73 14.0485C153.889 13.7613 154.132 13.5316 154.425 13.3911C154.619 13.2978 154.83 13.2464 155.045 13.2402C155.34 13.2269 155.631 13.3118 155.875 13.4819C156.119 13.6521 156.302 13.8984 156.397 14.184C156.459 14.3728 156.482 14.5744 156.463 14.7732V20.704H158.968V14.8895C158.946 14.6772 158.968 14.4624 159.034 14.2598C159.1 14.0571 159.208 13.8713 159.35 13.7149C159.492 13.5585 159.666 13.4352 159.859 13.3533C160.052 13.2714 160.26 13.2328 160.469 13.2402C160.67 13.2311 160.871 13.2668 161.057 13.3449C161.244 13.423 161.411 13.5417 161.548 13.6926C161.685 13.8435 161.788 14.0231 161.85 14.2188C161.913 14.4146 161.932 14.6218 161.908 14.826V20.704H164.496V14.3609C164.515 13.663 164.302 12.9792 163.89 12.4216C163.479 11.864 162.894 11.4659 162.232 11.2925C161.57 11.1191 160.87 11.1809 160.247 11.4676C159.623 11.7543 159.114 12.2489 158.802 12.8702H158.657C158.5 12.3184 158.163 11.8381 157.702 11.5093C157.24 11.1804 156.683 11.0227 156.121 11.0624C155.556 11.0363 154.998 11.1986 154.532 11.5246C154.065 11.8507 153.714 12.323 153.533 12.8702H153.42V11.1893ZM135.304 11.0624C132.478 11.0624 130.739 13.0605 130.739 15.9784C130.739 18.8751 132.447 20.8837 135.356 20.8837C137.82 20.8837 139.383 19.4037 139.497 17.2153H137.064C137.035 17.6518 136.842 18.0602 136.526 18.3555C136.21 18.6508 135.795 18.8104 135.366 18.8011C134.166 18.8011 133.379 17.7122 133.379 15.9467C133.379 14.1811 134.166 13.1239 135.366 13.1239C135.795 13.1151 136.21 13.2749 136.526 13.5701C136.842 13.8653 137.035 14.2734 137.064 14.7097H139.445C139.372 12.5108 137.737 11.0624 135.304 11.0624ZM127.14 18.3324C126.937 18.5392 126.799 18.8029 126.743 19.0901C126.686 19.3772 126.715 19.675 126.824 19.9458C126.933 20.2165 127.119 20.4481 127.357 20.6113C127.595 20.7745 127.875 20.8619 128.162 20.8626C128.4 20.8626 128.634 20.8026 128.844 20.6881C129.054 20.5735 129.234 20.4079 129.366 20.2058C129.498 20.0037 129.58 19.7714 129.604 19.5294C129.627 19.2874 129.592 19.0432 129.501 18.8184C129.411 18.5936 129.267 18.3951 129.083 18.2404C128.9 18.0857 128.681 17.9797 128.448 17.9316C128.215 17.8836 127.973 17.895 127.745 17.9649C127.517 18.0348 127.309 18.161 127.14 18.3324ZM140.439 15.9784C140.439 13.0288 142.198 11.0624 145.024 11.0624C147.85 11.0624 149.6 13.0288 149.6 15.9784C149.6 18.9279 147.85 20.8837 145.024 20.8837C142.198 20.8837 140.439 18.9174 140.439 15.9784ZM146.981 15.9734C146.98 14.3158 146.307 13.0922 145.035 13.0922C143.762 13.0922 143.058 14.3186 143.058 15.9784C143.058 17.6382 143.73 18.8539 145.035 18.8539C146.338 18.8539 146.98 17.6304 146.981 15.9734Z" fill="#9B9A9C"/>
</svg>
