<svg width="111" height="21" viewBox="0 0 111 21" fill="none" xmlns="http://www.w3.org/2000/svg">
<path d="M7.17801 20.9622C3.55062 20.9622 0 18.6924 0 13.5687C0 8.4283 3.55062 6.19189 7.17801 6.19189C8.96291 6.19189 10.364 6.59244 11.362 7.15989L10.268 9.24609C9.59626 8.82885 8.59825 8.56181 7.60024 8.56181C5.41229 8.56181 3.41627 10.0639 3.41627 13.5353C3.41627 17.0067 5.46987 18.5422 7.60024 18.5422C8.59825 18.5422 9.59626 18.2752 10.268 17.8579L11.362 19.9942C10.3256 20.595 8.96291 20.9622 7.17801 20.9622Z" fill="#9B9A9C"/>
<path d="M19.6726 20.9622C15.0472 20.9622 12.4946 17.7745 12.4946 13.5687C12.4946 9.36291 15.028 6.19189 19.6726 6.19189C24.298 6.19189 26.8506 9.34622 26.8506 13.5687C26.8506 17.7745 24.298 20.9622 19.6726 20.9622ZM19.6726 8.47837C17.1008 8.47837 15.8341 10.4811 15.8341 13.5353C15.8341 16.5895 17.1008 18.6089 19.6726 18.6089C22.2444 18.6089 23.5111 16.5895 23.5111 13.5353C23.5111 10.4811 22.2444 8.47837 19.6726 8.47837Z" fill="#9B9A9C"/>
<path d="M31.303 3.90519C30.209 3.90519 29.3262 3.17085 29.3262 2.26961C29.3262 1.36837 30.209 0.634033 31.303 0.634033C32.397 0.634033 33.2798 1.36837 33.2798 2.26961C33.2798 3.17085 32.3778 3.90519 31.303 3.90519ZM29.6333 6.47539H32.9728V20.6615H29.6333V6.47539Z" fill="#9B9A9C"/>
<path d="M46.062 20.6618V11.1988C46.062 9.5465 44.9105 8.51175 42.6457 8.51175C41.4366 8.51175 40.3234 8.69533 39.6517 8.92898V20.6784H36.3506V7.19327C37.982 6.60913 40.0739 6.19189 42.6265 6.19189C47.1944 6.19189 49.4015 7.92761 49.4015 10.9317V20.6784H46.062" fill="#9B9A9C"/>
<path d="M58.1727 20.9621C56.0615 20.9621 53.9695 20.5115 52.6836 19.9607V0H55.9847V6.84273C56.7716 6.52562 58.0383 6.25859 59.1707 6.25859C63.3738 6.25859 66.2335 8.89554 66.2335 13.2348C66.2335 18.5922 63.0476 20.9621 58.1727 20.9621ZM58.5949 8.51168C57.6928 8.51168 56.6181 8.69527 55.9847 8.97899V18.2918C56.4645 18.4754 57.405 18.6589 58.3454 18.6589C60.9748 18.6589 62.9132 17.0734 62.9132 13.4518C62.9324 10.3475 61.2435 8.51168 58.5949 8.51168Z" fill="#9B9A9C"/>
<path d="M75.2157 20.9622C70.5327 20.9622 68.1528 19.3099 68.1528 16.5061C68.1528 12.5506 72.9893 11.8497 77.9218 11.616V10.7148C77.9218 8.92899 76.5592 8.29478 74.4672 8.29478C72.9318 8.29478 71.0509 8.71202 69.9569 9.16264L69.1125 7.19327C70.4176 6.69258 72.6247 6.19189 74.8126 6.19189C78.7087 6.19189 81.0886 7.51037 81.0886 11.0152V19.9608C79.9179 20.5116 77.5188 20.9622 75.2157 20.9622ZM77.941 13.5353C74.6015 13.6855 71.2812 13.9359 71.2812 16.456C71.2812 17.958 72.6055 18.876 75.1197 18.876C76.1753 18.876 77.4228 18.7258 77.941 18.5088V13.5353Z" fill="#9B9A9C"/>
<path d="M88.5352 20.9622C86.6352 20.9622 84.6392 20.5116 83.4492 19.9608L84.5624 17.7578C85.4069 18.2084 87.1918 18.6757 88.4393 18.6757C90.2242 18.6757 91.4141 17.908 91.4141 16.723C91.4141 15.4379 90.1666 14.9372 88.516 14.4032C86.3281 13.6855 83.8906 12.8177 83.8906 10.164C83.8906 7.82747 85.9826 6.19189 89.61 6.19189C91.5868 6.19189 93.2182 6.60913 94.3698 7.19327L93.3334 9.19602C92.6041 8.79547 91.1454 8.36154 89.9747 8.36154C88.2474 8.36154 87.2877 9.14595 87.2877 10.1807C87.2877 11.4658 88.4969 11.9164 90.109 12.4505C92.3737 13.1848 94.888 14.0026 94.888 16.7731C94.8688 19.2932 92.6232 20.9622 88.5352 20.9622Z" fill="#9B9A9C"/>
<path d="M110.971 13.5018L100.127 14.8203C100.454 17.3738 102.373 18.6589 105.118 18.6589C106.749 18.6589 108.515 18.3084 109.628 17.791L110.587 19.944C109.321 20.5281 107.133 20.9453 104.887 20.9453C99.7436 20.9453 96.8647 18.0747 96.8647 13.5518C96.8647 9.21255 99.6477 6.17505 104.215 6.17505C108.457 6.17505 110.971 8.59504 110.971 12.417C111.01 12.7674 111.01 13.1346 110.971 13.5018ZM104.196 8.29463C101.663 8.29463 99.9931 9.98027 99.9355 12.9343L107.843 11.983C107.804 9.51296 106.365 8.29463 104.196 8.29463Z" fill="#9B9A9C"/>
</svg>
