<svg width="117" height="28" viewBox="0 0 117 28" fill="none" xmlns="http://www.w3.org/2000/svg">
<path d="M116.155 8.07342L114.648 10.1193L113.148 8.07342H112.5V12.4845H113.168V9.17515L114.447 10.9223H114.845L116.134 9.17241V12.4845H116.802V8.07342H116.155ZM111.415 11.3128C111.415 12.0432 110.708 12.5831 109.82 12.5598C108.985 12.5434 108.199 12.1912 108.199 12.1912L108.382 11.6061C108.382 11.6061 109.185 11.961 109.784 11.9541C110.346 11.9473 110.708 11.7006 110.708 11.3128C110.708 10.8428 110.238 10.7113 109.681 10.5496C109.011 10.3564 108.245 10.133 108.245 9.22448C108.245 8.50096 108.889 8.02409 109.82 8.00079C110.487 7.98161 111.287 8.31733 111.287 8.31733L111.102 8.89972C111.102 8.89972 110.372 8.59003 109.857 8.60373C109.303 8.62291 108.946 8.84628 108.946 9.22448C108.946 9.66573 109.413 9.80412 109.956 9.95486C110.639 10.1494 111.415 10.3728 111.415 11.3128Z" fill="#9B9A9C"/>
<path d="M96.0713 18.0949C96.0713 19.6774 95.1486 20.6089 93.6293 20.6089C92.5094 20.6089 91.8279 20.0008 91.8279 19.0281C91.8279 17.9349 92.709 17.2838 94.1884 17.2838C94.909 17.2838 95.4706 17.3647 96.0713 17.4885V18.0949ZM96.0713 16.1098C95.4706 15.9455 94.6694 15.8672 93.9488 15.8672C91.387 15.8672 89.8635 17.1221 89.8635 19.1898C89.8635 21.0157 91.3071 22.2302 93.388 22.2302C94.6294 22.2302 95.632 21.7451 96.311 20.8919C96.593 21.7451 97.3119 22.2302 98.2738 22.2302C98.6757 22.2302 99.115 22.1494 99.3945 22.0281L99.1948 20.486C99.0368 20.5264 98.8354 20.5685 98.6756 20.5685C98.1939 20.5685 97.9925 20.3243 97.9925 19.8391V15.5817C97.9925 13.3119 96.5132 11.9332 94.0686 11.9332C92.8663 11.9332 91.5043 12.2566 90.3428 12.8251L90.9435 14.4076C91.7863 13.9208 92.789 13.6353 93.7491 13.6353C95.2684 13.6353 96.0713 14.3268 96.0713 15.6625V16.1098ZM77.0891 12.1783H75.128V22.0272H77.0891V12.1783ZM76.1281 10.7591C76.847 10.7591 77.3704 10.2319 77.3704 9.50169C77.3704 8.77232 76.847 8.24677 76.1281 8.24677C75.4075 8.24677 74.8484 8.77232 74.8484 9.50169C74.8484 10.2319 75.4075 10.7591 76.1281 10.7591ZM103.438 20.5264C102.759 20.5264 102.52 20.2451 102.52 19.4728V8H100.554V19.7583C100.554 21.3391 101.437 22.2302 103.079 22.2302C103.48 22.2302 103.919 22.1494 104.199 22.0281L103.999 20.4472C103.839 20.486 103.598 20.5264 103.438 20.5264ZM70.0401 13.7145C70.843 13.7145 71.7649 14.0825 72.5262 14.6502L73.4048 13.1906C72.5262 12.4208 71.2041 11.9332 69.9618 11.9332C67.1187 11.9332 65.0353 14.0825 65.0353 17.0817C65.0353 20.203 66.959 22.2302 69.8403 22.2302C71.2041 22.2302 72.6061 21.7451 73.4048 20.9753L72.5262 19.5536C71.8032 20.16 71.0044 20.4472 70.1199 20.4472C68.2403 20.4472 67.0364 19.1494 67.0364 17.0817C67.0364 15.0562 68.2404 13.7145 70.0401 13.7145ZM59.83 11.9332C58.5495 11.9332 57.4271 12.5017 56.7066 13.4332L56.5468 12.1783H54.9035V22.0281H56.8663V16.514C56.8663 14.8523 57.9064 13.7145 59.3907 13.7145C60.7103 13.7145 61.5532 14.5693 61.5532 15.9051V22.0281H63.5144V15.6625C63.5144 13.4332 62.0324 11.9332 59.83 11.9332ZM52.3417 22.0281V19.2302V12.1783H50.3805V22.0281H52.3417ZM51.3807 10.7591C52.102 10.7591 52.6229 10.2319 52.6229 9.50169C52.6229 8.77232 52.102 8.24677 51.3807 8.24677C50.6601 8.24677 50.0985 8.77232 50.0985 9.50169C50.0985 10.2319 50.6601 10.7591 51.3807 10.7591ZM47.535 12.0166C46.4142 12.0166 45.3741 12.5396 44.8133 13.4332L44.6536 12.1783H43.0095V22.0281H44.9731V16.7179C44.9731 14.8119 45.8551 13.8012 47.535 13.8012C47.8187 13.8012 48.2181 13.8779 48.6174 13.9613L48.8587 12.2566C48.4577 12.0949 48.0159 12.0166 47.535 12.0166ZM34.2414 10.3549H36.6835C38.5264 10.3549 39.6073 11.2847 39.6073 12.9464C39.6073 14.6098 38.5264 15.5413 36.6835 15.5413H34.2414V10.3549ZM32.1987 8.61061V22.0281H34.2414V17.2838H36.963C39.767 17.2838 41.6499 15.5413 41.6499 12.9464C41.6499 10.3549 39.767 8.61061 36.963 8.61061H32.1987ZM83.8985 20.4472C83.0157 20.4472 82.0556 20.0008 81.5739 19.3944V16.4307C81.5739 14.7715 82.5764 13.7145 84.0957 13.7145C85.6999 13.7145 86.7 14.9349 86.7 16.8796C86.7 19.1494 85.66 20.4472 83.8985 20.4472ZM84.4976 11.9332C83.2554 11.9332 82.0955 12.4613 81.3741 13.4332L81.2144 12.1783H79.5728V26H81.5339V21.2583C82.133 21.8259 83.2554 22.2302 84.2156 22.2302C86.8998 22.2302 88.7028 20.0413 88.7028 16.8796C88.7028 13.9208 87.0196 11.9332 84.4976 11.9332Z" fill="#9B9A9C"/>
<path d="M0.19873 13.0579C0.19873 20.8098 5.92563 27.2815 13.3551 28V18.1385C9.87481 17.7991 7.48396 15.1293 7.48396 11.592C7.48396 8.1654 9.69449 5.68286 12.7383 5.68286C15.5281 5.68286 17.414 7.48976 17.414 10.1619C17.414 12.5321 15.9646 14.0768 13.3551 14.4888V18.1385C18.7184 17.9887 22.1987 14.6027 22.1987 9.51902C22.1987 4.02575 18.067 0 12.4137 0C5.45528 0 0.19873 5.64307 0.19873 13.0579Z" fill="#9B9A9C"/>
</svg>
